<svg width="722" height="745" viewBox="0 0 722 745" fill="none" xmlns="http://www.w3.org/2000/svg">
<g clip-path="url(#clip0_15_240)">
<path d="M722 446.317C722 659.17 511.417 766.13 276.22 741.529C74.9895 720.481 0 650.97 0 438.116C0 225.263 221.577 15.1433 377.409 0.76537C555.174 -15.6353 722 233.463 722 446.317Z" fill="#8E5229"/>
<path d="M498.433 480.754C603.529 314.979 598.568 123.493 487.352 53.0578C376.136 -17.3768 200.781 59.912 95.6847 225.687C-9.4113 391.463 -4.45012 582.949 106.766 653.383C217.982 723.818 393.337 646.529 498.433 480.754Z" fill="#AEE862"/>
<path d="M349.894 300.346C340.431 315.271 342.263 317.321 330.75 327.681C318.224 338.943 316.145 339.353 303.401 344.082C294.075 347.526 285.871 357.12 273.318 357.749C262.871 358.268 257.182 347.717 251.439 344.082C243.125 338.833 235.057 335.936 232.295 324.947C229.806 314.998 237.546 304.72 235.03 292.146C232.295 278.479 242.742 266.862 245.969 256.611C249.196 246.361 251.548 231.655 256.909 221.077C259.999 214.981 275.095 205.059 278.787 199.209C294.595 174.28 299.955 185.925 319.81 174.608C342.127 161.898 347.323 161.597 363.568 171.875C378.828 181.551 374.507 185.542 377.242 199.209C379.758 211.728 384.134 227.364 377.242 242.944C374.753 248.548 369.831 269.431 366.303 281.212C364.005 288.839 352.355 296.465 349.894 300.346Z" fill="#EDE1C8"/>
<path d="M350.551 361.794C347.515 358.077 343.713 340.419 342.264 331.972C341.936 330.032 343.823 328.501 345.655 329.184C353.614 332.246 370.925 339.189 373.851 342.77C377.68 347.444 378.2 357.967 371.773 363.216C365.346 368.464 354.379 366.468 350.551 361.794Z" fill="#0F0E0E"/>
<path d="M415.202 268.01C410.416 268.338 393.788 261.203 386.076 257.486C384.298 256.639 384.134 254.178 385.775 253.112C392.858 248.411 408.556 238.325 413.178 238.024C419.195 237.614 428.083 243.272 428.63 251.554C429.177 259.837 421.191 267.627 415.175 268.01H415.202Z" fill="#0F0E0E"/>
<path d="M420.207 168.977C415.886 172.421 396.249 177.533 386.924 179.556C384.79 180.02 383.259 178.107 384.189 176.111C388.209 167.501 397.316 148.75 401.473 145.442C406.915 141.123 418.429 139.921 423.625 146.399C428.821 152.877 425.676 164.631 420.234 168.95L420.207 168.977Z" fill="#0F0E0E"/>
<path d="M204.373 195.874C209.077 197.542 222.341 210.143 228.357 216.348C229.725 217.769 228.986 219.847 227.017 220.093C218.512 221.104 199.778 223.072 195.238 221.459C189.331 219.355 182.904 211.1 185.42 204.02C187.936 196.94 198.438 193.769 204.345 195.874H204.373Z" fill="#0F0E0E"/>
<path d="M167.288 316.72C171.883 314.752 190.179 314.998 198.794 315.462C200.763 315.572 201.638 317.594 200.352 319.098C194.801 325.631 182.384 339.79 177.954 341.676C172.183 344.136 161.846 342.441 158.892 335.553C155.938 328.665 161.463 319.18 167.261 316.72H167.288Z" fill="#0F0E0E"/>
<path d="M309.829 403.561C309.2 398.614 313.657 381.174 316.064 373.083C316.611 371.225 318.58 370.979 319.565 372.646C323.886 379.835 333.212 395.771 333.813 400.527C334.606 406.759 330.75 416.135 324.132 416.955C317.514 417.775 310.649 409.766 309.856 403.561H309.829Z" fill="#0F0E0E"/>
<path d="M210.882 399.406C214.328 394.869 231.092 383.634 239.105 378.632C240.938 377.484 242.524 378.687 241.922 380.764C239.351 389.785 233.471 409.602 230.162 413.976C225.841 419.689 215.777 424.691 210.471 420.673C205.166 416.654 206.561 405.119 210.882 399.434V399.406Z" fill="#0F0E0E"/>
<path d="M192.531 353.84C197.18 350.532 216.324 344.546 225.349 342.031C227.428 341.457 228.494 342.961 227.264 344.738C221.958 352.391 210.143 369.147 205.658 372.318C199.833 376.473 188.894 378.468 185.284 373.357C181.646 368.245 186.678 357.995 192.531 353.84Z" fill="#0F0E0E"/>
<path d="M196.989 256.857C201.775 256.666 218.102 262.16 225.677 265.03C227.4 265.686 227.482 267.545 225.814 268.338C218.567 271.837 202.568 279.326 197.946 279.518C191.929 279.764 183.26 275.445 182.986 269.185C182.713 262.926 190.945 257.131 196.989 256.857Z" fill="#0F0E0E"/>
<path d="M261.531 163.51C263.692 166.982 265.661 181.934 266.317 189.013C266.454 190.626 264.895 191.61 263.5 190.763C257.456 187.073 244.329 178.845 242.25 175.483C239.543 171.109 239.707 162.472 245.04 159.164C250.373 155.857 258.824 159.137 261.531 163.51Z" fill="#0F0E0E"/>
<path d="M301.761 122.673C302.116 127.237 296.346 143.119 293.337 150.472C292.653 152.166 290.575 152.303 289.645 150.745C285.543 143.966 276.764 129.014 276.436 124.586C275.998 118.846 280.62 110.345 287.621 109.825C294.623 109.306 301.323 116.905 301.761 122.673Z" fill="#0F0E0E"/>
<path d="M399.969 119.201C397.261 124.149 382.083 137.324 374.726 143.228C373.031 144.595 371.226 143.583 371.472 141.451C372.538 132.158 375.082 111.711 377.707 106.955C381.126 100.75 390.534 94.5728 396.687 97.9623C402.841 101.352 403.388 112.996 399.969 119.201Z" fill="#0F0E0E"/>
<path d="M350.988 123.711C349.894 128.659 340.13 143.939 335.29 150.936C334.169 152.549 332.364 152.139 332.008 150.226C330.559 141.916 327.55 123.575 328.589 118.818C329.957 112.586 336.52 104.851 342.701 106.217C348.882 107.584 352.328 117.506 350.96 123.739L350.988 123.711Z" fill="#0F0E0E"/>
<path d="M445.477 205.031C440.773 206.917 422.641 207.437 414.135 207.355C412.194 207.355 411.483 205.605 412.877 204.239C418.949 198.362 432.404 185.569 436.944 183.765C442.879 181.387 452.97 182.48 455.322 188.33C457.674 194.179 451.384 202.653 445.477 205.004V205.031Z" fill="#0F0E0E"/>
<path d="M256.499 398.696C257.894 393.803 268.614 379.206 273.893 372.537C275.096 371.006 276.901 371.525 277.12 373.466C278.05 381.858 279.882 400.336 278.542 405.037C276.792 411.16 269.736 418.486 263.664 416.736C257.593 414.987 254.776 404.846 256.526 398.723L256.499 398.696Z" fill="#0F0E0E"/>
<path d="M402.813 326.424C398.519 324.373 387.525 310.351 382.603 303.49C381.481 301.905 382.493 299.772 384.435 299.636C392.803 299.089 411.182 298.105 415.311 300.073C420.726 302.643 425.731 311.69 422.285 318.961C418.839 326.232 408.228 328.966 402.84 326.396L402.813 326.424Z" fill="#0F0E0E"/>
<path d="M121.534 499.888C138.904 499.888 152.985 481.531 152.985 458.886C152.985 436.242 138.904 417.885 121.534 417.885C104.164 417.885 90.083 436.242 90.083 458.886C90.083 481.531 104.164 499.888 121.534 499.888Z" fill="#0F0E0E"/>
<path d="M131.106 456.153C137.148 456.153 142.045 450.034 142.045 442.486C142.045 434.937 137.148 428.818 131.106 428.818C125.064 428.818 120.167 434.937 120.167 442.486C120.167 450.034 125.064 456.153 131.106 456.153Z" fill="#EDE1C8"/>
<path d="M293.658 529.372C305.058 509.802 302.131 486.857 287.12 478.122C272.11 469.386 250.7 478.169 239.3 497.738C227.9 517.307 230.827 540.252 245.838 548.988C260.848 557.723 282.258 548.941 293.658 529.372Z" fill="#0F0E0E"/>
<path d="M275.926 500.077C279.726 493.554 278.574 485.803 273.353 482.764C268.132 479.726 260.819 482.551 257.019 489.074C253.219 495.597 254.371 503.348 259.592 506.386C264.813 509.425 272.126 506.6 275.926 500.077Z" fill="#EDE1C8"/>
<path d="M84.6136 538.156C98.2074 538.156 109.227 528.366 109.227 516.288C109.227 504.211 98.2074 494.421 84.6136 494.421C71.0199 494.421 60 504.211 60 516.288C60 528.366 71.0199 538.156 84.6136 538.156Z" fill="#EA607C"/>
<path d="M262.378 609.226C274.462 609.226 284.257 599.435 284.257 587.358C284.257 575.281 274.462 565.49 262.378 565.49C250.295 565.49 240.5 575.281 240.5 587.358C240.5 599.435 250.295 609.226 262.378 609.226Z" fill="#EA607C"/>
<path d="M140.678 531.869C140.24 530.748 138.572 530.94 138.381 532.142C136.302 544.634 139.447 560.98 161.189 568.224C184.244 575.905 202.212 565.49 204.236 552.999C204.454 551.687 203.087 550.675 201.966 551.413C196.715 554.912 184.572 563.276 166.632 557.317C150.222 551.85 143.112 538.101 140.65 531.896L140.678 531.869Z" fill="#0F0E0E"/>
</g>
<defs>
<clipPath id="clip0_15_240">
<rect width="722" height="745" fill="white"/>
</clipPath>
</defs>
</svg>
