<?xml version="1.0" encoding="UTF-8"?>
<svg id="Calque_1" data-name="Calque 1" xmlns="http://www.w3.org/2000/svg" xmlns:xlink="http://www.w3.org/1999/xlink" viewBox="0 0 1413 562">
  <defs>
    <style>
      .cls-1 {
        fill: #aee862;
      }

      .cls-1, .cls-2, .cls-3, .cls-4, .cls-5, .cls-6, .cls-7 {
        stroke-width: 0px;
      }

      .cls-2 {
        fill: #000;
      }

      .cls-3 {
        fill: none;
      }

      .cls-4 {
        fill: #ede1c8;
      }

      .cls-8 {
        clip-path: url(#clippath);
      }

      .cls-5 {
        fill: #8e5229;
      }

      .cls-6 {
        fill: #ea607c;
      }

      .cls-7 {
        fill: #0f0e0e;
      }
    </style>
    <clipPath id="clippath">
      <rect class="cls-3" x="38.85" y="19.83" width="509.11" height="522.33"/>
    </clipPath>
  </defs>
  <g class="cls-8">
    <g>
      <path class="cls-5" d="M547.96,332.75c0,149.24-148.49,224.23-314.34,206.98-141.89-14.76-194.77-63.49-194.77-212.73S195.09,30.45,304.98,20.37c125.35-11.5,242.98,163.15,242.98,312.38Z"/>
      <path class="cls-1" d="M390.31,356.9c74.11-116.23,70.61-250.48-7.81-299.87-78.42-49.38-202.07,4.81-276.18,121.03-74.11,116.23-70.61,250.48,7.81,299.87,78.42,49.38,202.07-4.81,276.18-121.03Z"/>
      <path class="cls-4" d="M285.57,230.41c-6.67,10.46-5.38,11.9-13.5,19.16-8.83,7.9-10.3,8.18-19.28,11.5-6.58,2.41-12.36,9.14-21.21,9.58-7.37.36-11.38-7.03-15.43-9.58-5.86-3.68-11.55-5.71-13.5-13.42-1.75-6.98,3.7-14.18,1.93-23-1.93-9.58,5.44-17.73,7.71-24.91,2.28-7.19,3.93-17.5,7.71-24.91,2.18-4.27,12.82-11.23,15.43-15.33,11.15-17.48,14.93-9.31,28.93-17.25,15.74-8.91,19.4-9.12,30.86-1.92,10.76,6.78,7.71,9.58,9.64,19.16,1.77,8.78,4.86,19.74,0,30.66-1.75,3.93-5.23,18.57-7.71,26.83-1.62,5.35-9.84,10.69-11.57,13.41Z"/>
      <path class="cls-7" d="M286.04,273.49c-2.14-2.61-4.82-14.99-5.84-20.91-.23-1.36,1.1-2.43,2.39-1.96,5.61,2.15,17.82,7.01,19.88,9.52,2.7,3.28,3.07,10.66-1.47,14.34-4.53,3.68-12.26,2.28-14.97-1Z"/>
      <path class="cls-7" d="M331.62,207.74c-3.37.23-15.1-4.77-20.54-7.38-1.25-.59-1.37-2.32-.21-3.07,4.99-3.3,16.06-10.37,19.32-10.58,4.24-.29,10.51,3.68,10.9,9.49s-5.25,11.27-9.49,11.54h.02Z"/>
      <path class="cls-7" d="M335.15,138.31c-3.05,2.41-16.89,6-23.47,7.42-1.5.33-2.58-1.02-1.93-2.41,2.83-6.04,9.26-19.18,12.19-21.5,3.84-3.03,11.96-3.87,15.62.67,3.66,4.54,1.45,12.78-2.39,15.81l-.02.02Z"/>
      <path class="cls-7" d="M182.96,157.16c3.32,1.17,12.67,10,16.91,14.35.96,1,.44,2.45-.94,2.63-6,.71-19.21,2.09-22.41.96-4.17-1.48-8.7-7.26-6.92-12.23,1.77-4.96,9.18-7.19,13.34-5.71h.02Z"/>
      <path class="cls-7" d="M156.81,241.89c3.24-1.38,16.14-1.21,22.22-.88,1.39.08,2.01,1.49,1.1,2.55-3.91,4.58-12.67,14.51-15.79,15.83-4.07,1.73-11.36.54-13.44-4.29-2.08-4.83,1.81-11.48,5.9-13.2h.02Z"/>
      <path class="cls-7" d="M257.32,302.78c-.44-3.47,2.7-15.7,4.4-21.37.39-1.3,1.77-1.48,2.47-.31,3.05,5.04,9.62,16.21,10.05,19.55.56,4.37-2.16,10.94-6.83,11.52-4.67.57-9.51-5.04-10.07-9.39h-.02Z"/>
      <path class="cls-7" d="M187.55,299.86c2.43-3.18,14.25-11.06,19.9-14.57,1.29-.81,2.41.04,1.99,1.49-1.81,6.32-5.96,20.22-8.29,23.28-3.05,4.01-10.14,7.51-13.88,4.7-3.74-2.82-2.76-10.9.29-14.89v-.02Z"/>
      <path class="cls-7" d="M174.61,267.92c3.28-2.32,16.78-6.52,23.14-8.28,1.47-.4,2.22.65,1.35,1.9-3.74,5.37-12.07,17.11-15.23,19.34-4.11,2.91-11.82,4.31-14.37.73-2.56-3.58.98-10.77,5.11-13.68Z"/>
      <path class="cls-7" d="M177.75,199.92c3.38-.13,14.89,3.72,20.23,5.73,1.22.46,1.27,1.76.1,2.32-5.11,2.45-16.39,7.7-19.65,7.84-4.24.17-10.36-2.86-10.55-7.24-.19-4.39,5.61-8.45,9.87-8.64Z"/>
      <path class="cls-7" d="M223.27,134.47c1.52,2.43,2.91,12.92,3.38,17.88.1,1.13-1,1.82-1.99,1.23-4.26-2.59-13.52-8.36-14.98-10.71-1.91-3.07-1.79-9.12,1.97-11.44,3.76-2.32,9.72-.02,11.63,3.05Z"/>
      <path class="cls-7" d="M251.63,105.84c.25,3.2-3.82,14.34-5.94,19.49-.48,1.19-1.95,1.28-2.6.19-2.89-4.75-9.08-15.24-9.31-18.34-.31-4.02,2.95-9.99,7.89-10.35,4.94-.36,9.66,4.96,9.97,9.01Z"/>
      <path class="cls-7" d="M320.88,103.41c-1.91,3.47-12.61,12.71-17.8,16.85-1.2.96-2.47.25-2.29-1.25.75-6.52,2.55-20.85,4.4-24.19,2.41-4.35,9.04-8.68,13.38-6.31,4.34,2.38,4.72,10.54,2.31,14.89Z"/>
      <path class="cls-7" d="M286.34,106.57c-.77,3.47-7.66,14.18-11.07,19.09-.79,1.13-2.06.84-2.31-.5-1.02-5.83-3.14-18.68-2.41-22.02.96-4.37,5.59-9.79,9.95-8.83,4.36.96,6.79,7.91,5.82,12.28l.02-.02Z"/>
      <path class="cls-7" d="M352.97,163.58c-3.32,1.32-16.1,1.69-22.1,1.63-1.37,0-1.87-1.23-.89-2.18,4.28-4.12,13.77-13.09,16.97-14.35,4.18-1.67,11.3-.9,12.96,3.2s-2.78,10.04-6.94,11.69v.02Z"/>
      <path class="cls-7" d="M219.72,299.37c.98-3.43,8.54-13.66,12.26-18.34.85-1.07,2.12-.71,2.28.65.66,5.88,1.95,18.84,1,22.14-1.23,4.29-6.21,9.43-10.49,8.2-4.28-1.23-6.27-8.34-5.03-12.63l-.02-.02Z"/>
      <path class="cls-7" d="M322.89,248.7c-3.03-1.44-10.78-11.27-14.25-16.08-.79-1.11-.08-2.61,1.29-2.7,5.9-.38,18.86-1.07,21.77.31,3.82,1.8,7.35,8.14,4.92,13.24-2.43,5.1-9.91,7.01-13.71,5.21l-.02.02Z"/>
      <path class="cls-7" d="M124.55,370.31c12.25,0,22.18-12.87,22.18-28.75s-9.93-28.75-22.18-28.75-22.18,12.87-22.18,28.75,9.93,28.75,22.18,28.75Z"/>
      <path class="cls-4" d="M131.3,339.65c4.26,0,7.71-4.29,7.71-9.58s-3.45-9.58-7.71-9.58-7.71,4.29-7.71,9.58,3.45,9.58,7.71,9.58Z"/>
      <path class="cls-7" d="M245.92,390.99c8.04-13.72,5.97-29.81-4.61-35.93-10.58-6.12-25.68.03-33.72,13.75-8.04,13.72-5.98,29.81,4.61,35.93,10.58,6.12,25.68-.03,33.72-13.75Z"/>
      <path class="cls-4" d="M233.42,370.45c2.68-4.57,1.87-10.01-1.81-12.14-3.68-2.13-8.84-.15-11.52,4.42-2.68,4.57-1.87,10.01,1.81,12.14,3.68,2.13,8.84.15,11.52-4.42Z"/>
      <path class="cls-6" d="M98.51,397.14c9.59,0,17.36-6.86,17.36-15.33s-7.77-15.33-17.36-15.33-17.36,6.86-17.36,15.33,7.77,15.33,17.36,15.33Z"/>
      <path class="cls-6" d="M223.86,446.97c8.52,0,15.43-6.86,15.43-15.33s-6.91-15.33-15.43-15.33-15.43,6.86-15.43,15.33,6.91,15.33,15.43,15.33Z"/>
      <path class="cls-7" d="M138.05,392.74c-.31-.79-1.49-.65-1.62.19-1.47,8.76.75,20.22,16.08,25.3,16.26,5.38,28.93-1.92,30.35-10.67.15-.92-.81-1.63-1.6-1.11-3.7,2.45-12.26,8.32-24.92,4.14-11.57-3.83-16.58-13.47-18.32-17.82l.02-.02Z"/>
    </g>
  </g>
  <g>
    <path class="cls-2" d="M846.32,376.77l-99.96-126.52,93.52-87.55c2.14-2.14,3.22-4.65,3.22-7.5,0-2.62-1.02-5-3.04-7.15-2.03-2.14-4.47-3.22-7.33-3.22s-5.48,1.19-7.86,3.57l-144.38,136.47v-129.68c0-3.09-1.07-5.72-3.22-7.86-2.14-2.14-4.77-3.22-7.86-3.22-3.34,0-6.08,1.07-8.22,3.22-2.14,2.14-3.22,4.77-3.22,7.86v228.01c0,3.1,1.01,5.72,3.04,7.86,2.02,2.14,4.7,3.22,8.04,3.22,3.09,0,5.72-1.07,7.86-3.22,2.14-2.14,3.33-4.76,3.57-7.86v-71.29l48.59-45.49,99.72,125.36c2.14,2.62,4.76,3.93,7.86,3.93,2.62,0,5.3-.96,8.04-2.86,2.74-1.9,4.11-4.76,4.11-8.58,0-2.62-.84-5.12-2.5-7.5Z"/>
    <path class="cls-2" d="M903.85,184.51c-5,0-8.76-1.13-11.26-3.4-2.5-2.26-3.75-5.54-3.75-9.83v-3.57c0-4.29,1.37-7.56,4.11-9.83,2.74-2.26,6.49-3.4,11.26-3.4,4.52,0,8.04,1.13,10.54,3.4,2.5,2.27,3.75,5.54,3.75,9.83v3.57c0,4.29-1.25,7.57-3.75,9.83-2.5,2.27-6.14,3.4-10.9,3.4ZM914.57,383.56c0,2.86-1.07,5.36-3.22,7.5-2.14,2.14-4.65,3.22-7.5,3.22-3.1,0-5.66-1.07-7.68-3.22-2.03-2.14-3.04-4.65-3.04-7.5v-164.39c0-2.86,1.01-5.36,3.04-7.5,2.02-2.14,4.58-3.22,7.68-3.22s5.66,1.07,7.68,3.22c2.02,2.14,3.04,4.65,3.04,7.5v164.39Z"/>
    <path class="cls-2" d="M1041.79,232.4c2.86,0,5.24-.95,7.15-2.86,1.9-1.9,2.86-4.17,2.86-6.79,0-2.86-.96-5.3-2.86-7.33-1.91-2.02-4.29-3.04-7.15-3.04h-35.74v-39.67c0-2.86-1.02-5.36-3.04-7.5-2.03-2.14-4.59-3.22-7.68-3.22s-5.66,1.07-7.68,3.22c-2.03,2.14-3.04,4.65-3.04,7.5v39.67h-26.09c-2.86,0-5.3.96-7.33,2.86-2.03,1.91-3.04,4.29-3.04,7.15,0,2.62,1.01,4.95,3.04,6.97,2.02,2.03,4.47,3.04,7.33,3.04h26.09v120.79c0,10.72,1.49,18.94,4.47,24.66,2.98,5.72,6.73,9.71,11.26,11.97,4.52,2.27,8.93,3.57,13.22,3.93,4.29.36,7.5.54,9.65.54,5.24,0,9.77-1.13,13.58-3.4,3.81-2.26,5.72-5.06,5.72-8.4,0-2.62-.78-4.76-2.32-6.43-1.55-1.66-3.39-2.5-5.54-2.5-1.91,0-3.63.3-5.18.89-1.55.6-3.28.89-5.18.89-2.86,0-5.72-.54-8.58-1.61-2.86-1.07-5.18-3.27-6.97-6.61-1.79-3.33-2.68-8.34-2.68-15.01v-119.72h35.74Z"/>
    <path class="cls-2" d="M1273.73,144.12c3.33,0,5.95,1.02,7.86,3.04,1.9,2.03,2.86,4.59,2.86,7.68v147.95c0,17.63-4.17,33.59-12.51,47.89-8.34,14.29-19.54,25.67-33.59,34.13-14.06,8.46-29.9,12.69-47.53,12.69s-33.54-4.23-47.71-12.69c-14.18-8.45-25.44-19.83-33.77-34.13-8.34-14.3-12.51-30.25-12.51-47.89v-147.95c0-3.09,1.01-5.66,3.04-7.68,2.02-2.02,4.83-3.04,8.4-3.04,2.86,0,5.36,1.02,7.5,3.04,2.14,2.03,3.22,4.59,3.22,7.68v147.95c0,13.82,3.27,26.21,9.83,37.17,6.55,10.96,15.31,19.72,26.27,26.27,10.96,6.56,22.87,9.83,35.74,9.83s25.49-3.27,36.45-9.83c10.96-6.55,19.71-15.31,26.27-26.27,6.55-10.96,9.83-23.35,9.83-37.17v-147.95c0-3.09.95-5.66,2.86-7.68,1.9-2.02,4.41-3.04,7.5-3.04Z"/>
    <path class="cls-2" d="M1374.15,383.21c-.24,3.1-1.49,5.72-3.75,7.86-2.27,2.14-4.82,3.22-7.68,3.22-3.34,0-6.02-1.07-8.04-3.22-2.03-2.14-3.04-4.76-3.04-7.86v-228.01c0-3.09,1.07-5.72,3.22-7.86,2.14-2.14,4.88-3.22,8.22-3.22,2.86,0,5.42,1.07,7.68,3.22,2.26,2.14,3.4,4.77,3.4,7.86v228.01Z"/>
  </g>
</svg>